HIERARCHY
ROOT Hips
{
	OFFSET 54.566799 -9.298776 96.115196
	CHANNELS 6 Xposition Yposition Zposition Xrotation Yrotation Zrotation
	JOINT spine
	{
		OFFSET 0.000000 -0.467661 8.132492
		CHANNELS 3 Xrotation Yrotation Zrotation
		JOINT spine1
		{
			OFFSET 0.000000 -0.000002 10.349800
			CHANNELS 3 Xrotation Yrotation Zrotation
			JOINT spine2
			{
				OFFSET 0.000000 -0.000001 9.916992
				CHANNELS 3 Xrotation Yrotation Zrotation
				JOINT Neck
				{
					OFFSET 0.000000 -1.213904 25.460999
					CHANNELS 3 Xrotation Yrotation Zrotation
					JOINT Head
					{
						OFFSET 0.000000 -0.000001 7.692444
						CHANNELS 3 Xrotation Yrotation Zrotation
						End Site
						{
							OFFSET 0.000000 6.140627 18.619995
						}
					}
				}
				JOINT RightShoulder
				{
					OFFSET -4.175751 0.581443 10.709595
					CHANNELS 3 Xrotation Yrotation Zrotation
					JOINT RightArm
					{
						OFFSET 0.000000 -0.000003 14.046600
						CHANNELS 3 Xrotation Yrotation Zrotation
						JOINT RightArmRoll
						{
							OFFSET 0.000000 -0.000001 7.090988
							CHANNELS 3 Xrotation Yrotation Zrotation
							JOINT RightForeArm
							{
								OFFSET 0.000000 -0.000003 20.653503
								CHANNELS 3 Xrotation Yrotation Zrotation
								JOINT RightForeArmRoll
								{
									OFFSET 0.000000 -0.000002 7.957184
									CHANNELS 3 Xrotation Yrotation Zrotation
									JOINT RightHand
									{
										OFFSET 0.000000 -0.000002 15.968292
										CHANNELS 3 Xrotation Yrotation Zrotation
										End Site
										{
											OFFSET 0.000000 0.000000 0.100006
										}
									}
								}
							}
						}
					}
				}
				JOINT LeftShoulder
				{
					OFFSET 4.175751 0.581443 10.709595
					CHANNELS 3 Xrotation Yrotation Zrotation
					JOINT LeftArm
					{
						OFFSET 0.000000 -0.000003 14.046600
						CHANNELS 3 Xrotation Yrotation Zrotation
						JOINT LeftArmRoll
						{
							OFFSET 0.000000 -0.000001 7.090973
							CHANNELS 3 Xrotation Yrotation Zrotation
							JOINT LeftForeArm
							{
								OFFSET 0.000000 -0.000003 20.653503
								CHANNELS 3 Xrotation Yrotation Zrotation
								JOINT LeftForeArmRoll
								{
									OFFSET 0.000000 -0.000002 7.957184
									CHANNELS 3 Xrotation Yrotation Zrotation
									JOINT LeftHand
									{
										OFFSET 0.000000 -0.000002 15.968307
										CHANNELS 3 Xrotation Yrotation Zrotation
										End Site
										{
											OFFSET 0.000000 0.000000 0.100006
										}
									}
								}
							}
						}
					}
				}
			}
		}
	}
	JOINT RightUpLeg
	{
		OFFSET -7.208340 1.108840 -1.321823
		CHANNELS 3 Xrotation Yrotation Zrotation
		JOINT RightUpLegRoll
		{
			OFFSET 0.000000 -0.000003 18.723801
			CHANNELS 3 Xrotation Yrotation Zrotation
			JOINT RightLeg
			{
				OFFSET 0.000000 0.000004 -23.186600
				CHANNELS 3 Xrotation Yrotation Zrotation
				JOINT RightLegRoll
				{
					OFFSET 0.000000 -0.000004 23.262398
					CHANNELS 3 Xrotation Yrotation Zrotation
					JOINT RightFoot
					{
						OFFSET 0.000000 -0.000004 19.362106
						CHANNELS 3 Xrotation Yrotation Zrotation
						JOINT RightToeBase
						{
							OFFSET 0.000000 -0.000002 16.185699
							CHANNELS 3 Xrotation Yrotation Zrotation
							End Site
							{
								OFFSET 0.006859 0.903519 7.838623
							}
						}
					}
				}
			}
		}
	}
	JOINT LeftUpLeg
	{
		OFFSET 7.208340 1.108840 -1.321823
		CHANNELS 3 Xrotation Yrotation Zrotation
		JOINT LeftUpLegRoll
		{
			OFFSET 0.000000 -0.000003 18.723900
			CHANNELS 3 Xrotation Yrotation Zrotation
			JOINT LeftLeg
			{
				OFFSET 0.000000 -0.000004 23.186493
				CHANNELS 3 Xrotation Yrotation Zrotation
				JOINT LeftLegRoll
				{
					OFFSET 0.000000 -0.000004 23.477509
					CHANNELS 3 Xrotation Yrotation Zrotation
					JOINT LeftFoot
					{
						OFFSET 0.000000 -0.000004 19.147003
						CHANNELS 3 Xrotation Yrotation Zrotation
						JOINT LeftToeBase
						{
							OFFSET 0.000000 -0.000002 16.185699
							CHANNELS 3 Xrotation Yrotation Zrotation
							End Site
							{
								OFFSET -0.030746 0.903521 7.838623
							}
						}
					}
				}
			}
		}
	}
}
MOTION
Frames: 6
Frame Time: 0.041667
54.867603 -7.712577 96.101585 -3.433192 1.211303 -0.148776 -1.491554 -0.531346 0.081170 1.038536 -1.057646 0.164751 2.683716 -1.055701 0.177512 12.488096 -1.180170 -8.948099 3.436072 -5.815177 -8.232023 -19.552624 -59.742305 -23.108982 -47.356229 -115.753743 -20.009012 -0.000001 0.000022 -0.000002 0.750144 -3.904767 -0.495849 -0.000003 0.000002 -3.003120 -5.000168 -7.999590 0.000078 -14.369820 62.390616 17.076053 -45.608260 114.828594 35.277254 -0.000002 0.000003 0.000014 0.071331 9.649944 1.092604 -0.000000 -0.000015 3.056730 -5.000224 7.998854 -0.000144 -1.916410 -172.806969 3.443573 -179.999991 0.000005 -1.025999 168.722707 -1.150356 -0.602379 0.000002 -0.000001 0.126184 70.214010 6.497362 3.089732 25.456948 -7.355614 -0.000001 -0.820782 171.532865 -2.723978 -0.000020 -0.000003 -0.936352 -13.238463 1.241936 0.752792 0.000003 -0.000005 -0.189811 72.793581 -6.142565 -4.010299 25.459880 7.355616 -0.004451 
54.871605 -7.706108 96.100693 -3.429899 1.213163 -0.151247 -1.491044 -0.531345 0.081021 1.037758 -1.058776 0.164075 2.682937 -1.056841 0.176848 12.483954 -1.193077 -8.949121 3.432236 -5.797165 -8.234791 -19.560844 -59.750932 -23.118623 -47.351270 -115.747651 -19.993294 -0.000001 0.000022 0.000001 0.745969 -3.898890 -0.495927 -0.000005 0.000003 -3.003118 -5.000166 -7.999591 0.000080 -14.359981 62.379838 17.064324 -45.580366 114.828143 35.235375 -0.000003 0.000003 0.000015 0.071331 9.644094 1.095454 -0.000001 -0.000015 3.056730 -5.000220 7.998854 -0.000145 -1.919819 -172.809004 3.442054 -179.999991 0.000006 -1.025998 168.722406 -1.150355 -0.602385 0.000002 -0.000001 0.126185 70.215642 6.498488 3.087835 25.456952 -7.355614 -0.000001 -0.824666 171.531855 -2.724683 -0.000020 -0.000004 -0.936352 -13.241461 1.241560 0.752789 0.000003 -0.000005 -0.189803 72.796163 -6.142670 -4.008574 25.459877 7.355617 -0.004450 
54.873405 -7.709320 96.100395 -3.426551 1.215014 -0.153716 -1.490492 -0.531342 0.080882 1.036957 -1.059966 0.163406 2.682138 -1.058020 0.176192 12.479409 -1.205527 -8.950218 3.428730 -5.779486 -8.237569 -19.568898 -59.758964 -23.128088 -47.345802 -115.741353 -19.977733 -0.000002 0.000021 -0.000002 0.742242 -3.893384 -0.496038 -0.000004 0.000001 -3.003124 -5.000172 -7.999590 0.000075 -14.350226 62.368841 17.052672 -45.552287 114.827638 35.193240 0.000001 0.000003 0.000015 0.071333 9.638214 1.098309 -0.000000 -0.000015 3.056731 -5.000222 7.998852 -0.000145 -1.923310 -172.810015 3.440459 -179.999991 0.000006 -1.025998 168.721997 -1.150353 -0.602393 0.000002 -0.000001 0.126184 70.217391 6.499688 3.085843 25.456952 -7.355614 -0.000001 -0.828545 171.529874 -2.725363 -0.000020 -0.000005 -0.936352 -13.244461 1.241175 0.752792 0.000003 -0.000006 -0.189790 72.798649 -6.142775 -4.006852 25.459878 7.355616 -0.004451 
54.872902 -7.714285 96.105286 -3.423174 1.216856 -0.156182 -1.489923 -0.531338 0.080748 1.036147 -1.061176 0.162743 2.681329 -1.059230 0.175543 12.474564 -1.217657 -8.951351 3.425469 -5.762036 -8.240356 -19.576895 -59.766696 -23.137471 -47.338651 -115.735670 -19.960813 -0.000001 0.000022 -0.000001 0.738824 -3.888157 -0.496174 -0.000005 0.000002 -3.003121 -5.000168 -7.999590 0.000076 -14.340612 62.357933 17.041199 -45.522487 114.827761 35.149226 -0.000000 0.000001 0.000014 0.071332 9.632317 1.101168 -0.000000 -0.000015 3.056729 -5.000221 7.998854 -0.000146 -1.926842 -172.812023 3.438884 -179.999991 0.000005 -1.025999 168.721601 -1.150353 -0.602402 0.000002 -0.000002 0.126185 70.219146 6.500887 3.083950 25.456948 -7.355614 -0.000002 -0.832423 171.527893 -2.726063 -0.000020 -0.000004 -0.936352 -13.247260 1.240781 0.752792 0.000003 -0.000006 -0.189776 72.801135 -6.142851 -4.005228 25.459880 7.355618 -0.004450 
54.870403 -7.714135 96.103394 -3.419777 1.218687 -0.158647 -1.489346 -0.531334 0.080618 1.035327 -1.062407 0.162083 2.680509 -1.060459 0.174895 12.469720 -1.229602 -8.952517 3.422348 -5.744714 -8.243150 -19.584861 -59.774230 -23.146813 -47.331316 -115.729906 -19.943953 0.000001 0.000023 0.000000 0.735589 -3.883070 -0.496315 -0.000005 0.000002 -3.003120 -5.000167 -7.999590 0.000079 -14.331069 62.347019 17.029801 -45.494070 114.827119 35.106739 -0.000002 0.000003 0.000015 0.071332 9.626404 1.104033 0.000003 -0.000015 3.056731 -5.000225 7.998852 -0.000146 -1.930403 -172.814045 3.437286 -179.999991 0.000006 -1.025998 168.721204 -1.149372 -0.602214 0.000002 -0.000001 0.126184 70.220915 6.502157 3.081868 25.456947 -7.355613 -0.000001 -0.836298 171.525899 -2.726753 -0.000019 -0.000004 -0.936352 -13.250058 1.240387 0.752792 0.000003 -0.000005 -0.189758 72.803519 -6.142989 -4.003419 25.459878 7.355617 -0.004450 
54.867603 -7.708657 96.099182 -3.416367 1.220507 -0.161114 -1.488754 -0.531329 0.080488 1.034508 -1.063647 0.161424 2.679691 -1.061698 0.174250 12.464774 -1.241499 -8.953700 3.419246 -5.727435 -8.245953 -19.592775 -59.781675 -23.156103 -47.323819 -115.724086 -19.927039 0.000001 0.000024 0.000001 0.732395 -3.878024 -0.496469 -0.000005 0.000002 -3.003121 -5.000171 -7.999589 0.000079 -14.321552 62.336104 17.018432 -45.464092 114.827187 35.062534 -0.000001 0.000001 0.000013 0.071332 9.620495 1.106913 -0.000002 -0.000015 3.056730 -5.000223 7.998854 -0.000145 -1.933971 -172.816053 3.435696 -179.999991 0.000006 -1.025999 168.720795 -1.149371 -0.602222 0.000002 -0.000001 0.126184 70.222691 6.503423 3.079786 25.456947 -7.355612 -0.000002 -0.840171 171.523904 -2.727454 -0.000020 -0.000004 -0.936352 -13.252859 1.239984 0.752792 0.000002 -0.000006 -0.189741 72.805992 -6.143064 -4.001695 25.459878 7.355618 -0.004450 
